<svg width="35" height="35" viewBox="0 0 35 35" fill="none" xmlns="http://www.w3.org/2000/svg">
<path fill-rule="evenodd" clip-rule="evenodd" d="M21.1458 5.83333V4.375H22.6041V5.83333C22.6041 6.02672 22.681 6.21219 22.8177 6.34893C22.9545 6.48568 23.1399 6.5625 23.3333 6.5625H27.7083C28.0951 6.5625 28.466 6.71615 28.7395 6.98964C29.013 7.26313 29.1666 7.63406 29.1666 8.02083V17.5C29.1666 17.6934 29.0898 17.8789 28.9531 18.0156C28.8163 18.1523 28.6309 18.2292 28.4375 18.2292C28.2441 18.2292 28.0586 18.1523 27.9219 18.0156C27.7851 17.8789 27.7083 17.6934 27.7083 17.5V8.02083H23.3333C22.7532 8.02083 22.1968 7.79036 21.7865 7.38013C21.3763 6.96989 21.1458 6.41349 21.1458 5.83333Z" fill="#DD4343"/>
<path fill-rule="evenodd" clip-rule="evenodd" d="M22.6041 10.2083V13.125H24.0625V10.2083H22.6041ZM21.875 8.75C21.6816 8.75 21.4961 8.82682 21.3594 8.96357C21.2226 9.10031 21.1458 9.28578 21.1458 9.47917V13.8542C21.1458 14.0476 21.2226 14.233 21.3594 14.3698C21.4961 14.5065 21.6816 14.5833 21.875 14.5833H24.7916C24.985 14.5833 25.1705 14.5065 25.3072 14.3698C25.444 14.233 25.5208 14.0476 25.5208 13.8542V9.47917C25.5208 9.28578 25.444 9.10031 25.3072 8.96357C25.1705 8.82682 24.985 8.75 24.7916 8.75H21.875Z" fill="#DD4343"/>
<path fill-rule="evenodd" clip-rule="evenodd" d="M22.6042 9.11458V6.5625H24.0625V9.11458H22.6042Z" fill="#DD4343"/>
<path fill-rule="evenodd" clip-rule="evenodd" d="M27.7565 18.2772H14.6636C14.4419 18.2773 14.2224 18.2335 14.0176 18.1484C13.8129 18.0633 13.627 17.9386 13.4707 17.7814L14.5046 16.7533C14.5469 16.7956 14.6045 16.8189 14.6636 16.8189H27.7565C29.341 16.8189 30.6251 18.1139 30.6251 19.7115C30.6251 21.3084 29.341 22.6041 27.7565 22.6041H12.4484C12.2304 22.6041 12.0218 22.5166 11.8672 22.3613L5.95516 16.4091C5.40996 15.8584 5.10413 15.1147 5.10413 14.3397C5.10413 13.5648 5.40996 12.8211 5.95516 12.2704C6.22325 11.9996 6.54237 11.7846 6.89407 11.6379C7.24576 11.4911 7.62305 11.4156 8.00412 11.4156C8.38519 11.4156 8.76248 11.4911 9.11418 11.6379C9.46587 11.7846 9.78499 11.9996 10.0531 12.2704L14.5046 16.7533L13.4707 17.7814L9.01839 13.2985C8.8859 13.1641 8.728 13.0573 8.55387 12.9844C8.37975 12.9116 8.19288 12.874 8.00412 12.874C7.81537 12.874 7.62849 12.9116 7.45437 12.9844C7.28025 13.0573 7.12235 13.1641 6.98985 13.2985C6.71604 13.576 6.56252 13.9502 6.56252 14.3401C6.56252 14.73 6.71604 15.1042 6.98985 15.3817L12.7153 21.1458H27.7565C28.5251 21.1458 29.1667 20.5151 29.1667 19.7115C29.1667 18.908 28.5236 18.2772 27.7565 18.2772Z" fill="#DD4343"/>
<path d="M6.5625 16.7709L8.02083 17.6327V26.25H6.5625V16.7709Z" fill="#DD4343"/>
<path d="M26.25 22.2563H27.7083V26.3958H26.25V22.2571V22.2563Z" fill="#DD4343"/>
<path fill-rule="evenodd" clip-rule="evenodd" d="M30.625 26.25H4.375V24.7916H30.625V26.25Z" fill="#DD4343"/>
<path fill-rule="evenodd" clip-rule="evenodd" d="M8.3854 29.1667C8.67548 29.1667 8.95368 29.0515 9.15879 28.8464C9.36391 28.6412 9.47915 28.363 9.47915 28.073C9.47915 27.7829 9.36391 27.5047 9.15879 27.2996C8.95368 27.0944 8.67548 26.9792 8.3854 26.9792C8.09532 26.9792 7.81712 27.0944 7.612 27.2996C7.40688 27.5047 7.29165 27.7829 7.29165 28.073C7.29165 28.363 7.40688 28.6412 7.612 28.8464C7.81712 29.0515 8.09532 29.1667 8.3854 29.1667ZM8.3854 30.625C9.06225 30.625 9.71138 30.3562 10.19 29.8776C10.6686 29.3989 10.9375 28.7498 10.9375 28.073C10.9375 27.3961 10.6686 26.747 10.19 26.2684C9.71138 25.7898 9.06225 25.5209 8.3854 25.5209C7.70854 25.5209 7.05941 25.7898 6.5808 26.2684C6.10219 26.747 5.83331 27.3961 5.83331 28.073C5.83331 28.7498 6.10219 29.3989 6.5808 29.8776C7.05941 30.3562 7.70854 30.625 8.3854 30.625Z" fill="#DD4343"/>
<path fill-rule="evenodd" clip-rule="evenodd" d="M26.6146 29.1667C26.9047 29.1667 27.1829 29.0515 27.388 28.8464C27.5931 28.6412 27.7083 28.363 27.7083 28.073C27.7083 27.7829 27.5931 27.5047 27.388 27.2996C27.1829 27.0944 26.9047 26.9792 26.6146 26.9792C26.3245 26.9792 26.0463 27.0944 25.8412 27.2996C25.6361 27.5047 25.5208 27.7829 25.5208 28.073C25.5208 28.363 25.6361 28.6412 25.8412 28.8464C26.0463 29.0515 26.3245 29.1667 26.6146 29.1667ZM26.6146 30.625C27.2914 30.625 27.9406 30.3562 28.4192 29.8776C28.8978 29.3989 29.1667 28.7498 29.1667 28.073C29.1667 27.3961 28.8978 26.747 28.4192 26.2684C27.9406 25.7898 27.2914 25.5209 26.6146 25.5209C25.9377 25.5209 25.2886 25.7898 24.81 26.2684C24.3314 26.747 24.0625 27.3961 24.0625 28.073C24.0625 28.7498 24.3314 29.3989 24.81 29.8776C25.2886 30.3562 25.9377 30.625 26.6146 30.625Z" fill="#DD4343"/>
<path fill-rule="evenodd" clip-rule="evenodd" d="M9.30637 11.0126C9.5618 10.7573 9.865 10.5549 10.1987 10.4169C10.5323 10.2788 10.8899 10.2078 11.251 10.2079C11.6121 10.2081 11.9696 10.2793 12.3032 10.4176C12.6367 10.556 12.9398 10.7586 13.195 11.014L14.5075 12.3273C14.7628 12.5827 14.9653 12.8858 15.1035 13.2195C15.2416 13.5532 15.3126 13.9108 15.3125 14.2719C15.3123 14.633 15.241 14.9906 15.1027 15.3241C14.9643 15.6577 14.7616 15.9607 14.5061 16.2159L13.4342 17.2863L12.4039 16.2553L13.4757 15.1834C13.7178 14.9414 13.8537 14.6131 13.8537 14.2709C13.8537 13.9286 13.7178 13.6003 13.4757 13.3583L12.1632 12.0458C11.9213 11.8036 11.593 11.6673 11.2506 11.6671C10.9082 11.6668 10.5798 11.8025 10.3374 12.0444L9.26554 13.1155L8.2345 12.0837L9.30637 11.0126Z" fill="#DD4343"/>
</svg>
