<svg width="22" height="22" viewBox="0 0 22 22" fill="none" xmlns="http://www.w3.org/2000/svg">
<path d="M7.33976 2.18625C6.03019 2.54716 4.72952 2.93961 3.43888 3.36325C3.32103 3.40143 3.21627 3.47193 3.13653 3.56674C3.0568 3.66155 3.00529 3.77685 2.98788 3.8995C2.22613 9.61538 3.98613 13.7858 6.08576 16.533C6.97472 17.7078 8.03469 18.7427 9.23038 19.6034C9.70613 19.9389 10.1269 20.1809 10.4583 20.3363C10.6233 20.4146 10.758 20.4669 10.8611 20.4985C10.9062 20.5143 10.9527 20.5258 11 20.5329C11.0467 20.5253 11.0927 20.5138 11.1375 20.4985C11.242 20.4669 11.3768 20.4146 11.5418 20.3363C11.8718 20.1809 12.2939 19.9375 12.7696 19.6034C13.9653 18.7427 15.0253 17.7078 15.9143 16.533C18.0139 13.7871 19.7739 9.61538 19.0121 3.8995C18.9949 3.77679 18.9434 3.66142 18.8637 3.56658C18.7839 3.47175 18.6791 3.40128 18.5611 3.36325C17.666 3.07038 16.1549 2.59325 14.6603 2.18762C13.134 1.77375 11.7301 1.46713 11 1.46713C10.2713 1.46713 8.86601 1.77375 7.33976 2.18762V2.18625ZM6.97401 0.77C8.46588 0.364375 10.0513 0 11 0C11.9488 0 13.5341 0.364375 15.026 0.77C16.5523 1.1825 18.0909 1.67062 18.9956 1.96625C19.3739 2.09117 19.7093 2.32026 19.9632 2.62721C20.2171 2.93416 20.3793 3.30652 20.4311 3.7015C21.2506 9.85738 19.349 14.4196 17.0418 17.4377C16.0634 18.7288 14.8967 19.8658 13.5809 20.8106C13.1259 21.1376 12.6438 21.4251 12.1399 21.67C11.7549 21.8515 11.341 22 11 22C10.659 22 10.2465 21.8515 9.86013 21.67C9.35621 21.4251 8.87413 21.1376 8.41913 20.8106C7.1033 19.8658 5.93668 18.7288 4.95826 17.4377C2.65101 14.4196 0.749382 9.85738 1.56888 3.7015C1.6207 3.30652 1.78289 2.93416 2.03682 2.62721C2.29074 2.32026 2.62611 2.09117 3.00438 1.96625C4.31777 1.53561 5.64137 1.13675 6.97401 0.77Z" fill="white"/>
<path d="M14.9243 7.07576C14.9883 7.13962 15.0391 7.21549 15.0737 7.29901C15.1084 7.38254 15.1262 7.47208 15.1262 7.56251C15.1262 7.65294 15.1084 7.74248 15.0737 7.826C15.0391 7.90953 14.9883 7.9854 14.9243 8.04926L10.7993 12.1743C10.7354 12.2383 10.6595 12.2891 10.576 12.3237C10.4925 12.3584 10.4029 12.3762 10.3125 12.3762C10.2221 12.3762 10.1325 12.3584 10.049 12.3237C9.96549 12.2891 9.88963 12.2383 9.82576 12.1743L7.76326 10.1118C7.69934 10.0478 7.64864 9.97195 7.61404 9.88844C7.57945 9.80492 7.56165 9.71541 7.56165 9.62501C7.56165 9.53461 7.57945 9.4451 7.61404 9.36158C7.64864 9.27806 7.69934 9.20218 7.76326 9.13826C7.82718 9.07434 7.90307 9.02363 7.98659 8.98904C8.0701 8.95445 8.15962 8.93664 8.25001 8.93664C8.34041 8.93664 8.42992 8.95445 8.51344 8.98904C8.59696 9.02363 8.67284 9.07434 8.73676 9.13826L10.3125 10.7154L13.9508 7.07576C14.0146 7.01173 14.0905 6.96094 14.174 6.92628C14.2575 6.89162 14.3471 6.87378 14.4375 6.87378C14.5279 6.87378 14.6175 6.89162 14.701 6.92628C14.7845 6.96094 14.8604 7.01173 14.9243 7.07576Z" fill="white"/>
</svg>
