<svg width="26" height="26" viewBox="0 0 26 26" fill="none" xmlns="http://www.w3.org/2000/svg">
<path d="M13 2.16663C7.02649 2.16663 2.16666 7.02646 2.16666 13C2.16666 18.9735 7.02649 23.8333 13 23.8333C18.9735 23.8333 23.8333 18.9735 23.8333 13C23.8333 7.02646 18.9735 2.16663 13 2.16663ZM13 21.6666C8.22141 21.6666 4.33332 17.7785 4.33332 13C4.33332 8.22138 8.22141 4.33329 13 4.33329C17.7786 4.33329 21.6667 8.22138 21.6667 13C21.6667 17.7785 17.7786 21.6666 13 21.6666Z" fill="white"/>
<path d="M14.0833 7.58331H11.9167V13.4485L15.4841 17.0159L17.0159 15.4841L14.0833 12.5515V7.58331Z" fill="white"/>
</svg>
