<svg width="51" height="51" viewBox="0 0 51 51" fill="none" xmlns="http://www.w3.org/2000/svg">
<path d="M43.5282 7.46557C33.5683 -2.49128 17.4225 -2.48889 7.46569 7.47105C-2.49116 17.431 -2.48877 33.5767 7.47117 43.5335C17.4311 53.4904 33.5768 53.488 43.5336 43.528C48.3155 38.7447 51.0012 32.2576 50.9997 25.4941C50.9983 18.7316 48.3107 12.2466 43.5282 7.46557ZM38.6185 35.5207C38.6174 35.5218 38.6163 35.523 38.6151 35.5241V35.5157L37.3231 36.7991C35.6522 38.4912 33.2186 39.1874 30.9056 38.6351C28.5752 38.0114 26.3599 37.0185 24.3436 35.6942C22.4704 34.497 20.7344 33.0974 19.1671 31.5206C17.7251 30.0891 16.4295 28.5173 15.2996 26.8286C14.0636 25.0116 13.0854 23.0321 12.3926 20.9466C11.5984 18.4966 12.2565 15.8083 14.0926 14.0021L15.6056 12.4892C16.0262 12.0666 16.7097 12.0651 17.1322 12.4858C17.1333 12.4869 17.1345 12.488 17.1356 12.4892L21.9125 17.2661C22.3351 17.6868 22.3366 18.3703 21.9159 18.7927C21.9148 18.7938 21.9137 18.7949 21.9125 18.7961L19.1075 21.6011C18.3027 22.3972 18.2015 23.6623 18.8696 24.5762C19.8841 25.9685 21.0068 27.2787 22.2271 28.4947C23.5877 29.8611 25.0668 31.1042 26.6471 32.2092C27.5602 32.8461 28.7981 32.7388 29.588 31.9542L32.2995 29.2002C32.7202 28.7777 33.4037 28.7762 33.8261 29.1968C33.8272 29.1979 33.8283 29.199 33.8295 29.2002L38.615 33.9942C39.0377 34.4148 39.0392 35.0982 38.6185 35.5207Z" fill="white"/>
</svg>
