<svg width="35" height="35" viewBox="0 0 35 35" fill="none" xmlns="http://www.w3.org/2000/svg">
<path d="M30.9896 15.3125C30.3917 15.3125 29.8959 15.8083 29.8959 16.4062H27.65C27.4398 14.4553 26.67 12.6068 25.4334 11.0833L27.0229 9.49374L27.0375 9.50832C27.4604 9.93124 28.1604 9.93124 28.5834 9.50832C29.0063 9.08541 29.0063 8.38541 28.5834 7.96249L27.0375 6.41666C26.8317 6.21325 26.554 6.09918 26.2646 6.09918C25.9752 6.09918 25.6975 6.21325 25.4917 6.41666C25.0688 6.83957 25.0688 7.52499 25.4771 7.94791L23.8875 9.53749C22.3648 8.31133 20.5227 7.54714 18.5792 7.33541V5.10416H18.5938C19.1917 5.10416 19.6875 4.60832 19.6875 4.01041C19.6875 3.41249 19.1917 2.91666 18.5938 2.91666H16.4063C15.8084 2.91666 15.3125 3.41249 15.3125 4.01041C15.3125 4.60832 15.7938 5.08957 16.3917 5.10416V7.36457C14.3938 7.56874 12.5709 8.37082 11.0834 9.56666L9.49377 7.97707L9.50835 7.96249C9.93127 7.53957 9.93127 6.83957 9.50835 6.41666C9.30253 6.21325 9.02481 6.09918 8.73544 6.09918C8.44606 6.09918 8.16835 6.21325 7.96252 6.41666L6.41669 7.96249C5.99377 8.38541 5.99377 9.08541 6.41669 9.50832C6.8396 9.93124 7.52502 9.93124 7.94794 9.52291L9.53752 11.1125C8.31019 12.6275 7.55013 14.4668 7.35002 16.4062H5.10419C5.10419 15.8083 4.60835 15.3125 4.01044 15.3125C3.41252 15.3125 2.91669 15.8083 2.91669 16.4062V18.5937C2.91669 19.1917 3.41252 19.6875 4.01044 19.6875C4.60835 19.6875 5.10419 19.1917 5.10419 18.5937H7.35002C7.56877 20.5917 8.35627 22.4 9.53752 23.8875L7.94794 25.4771C7.84648 25.3774 7.72638 25.2987 7.59449 25.2455C7.46259 25.1923 7.32151 25.1656 7.17929 25.1669C7.03707 25.1683 6.89652 25.1977 6.76566 25.2534C6.63481 25.3091 6.51622 25.3901 6.41669 25.4917C5.99377 25.9146 5.99377 26.6146 6.41669 27.0375L7.96252 28.5833C8.38544 29.0062 9.08544 29.0062 9.50835 28.5833C9.93127 28.1604 9.93127 27.4604 9.50835 27.0375L9.49377 27.0229L11.0834 25.4333C12.5709 26.6292 14.3792 27.4167 16.3771 27.6354V29.8958C15.7792 29.9104 15.2979 30.3917 15.2979 30.9896C15.2979 31.5875 15.7938 32.0833 16.3917 32.0833H18.5792C19.1771 32.0833 19.6729 31.5875 19.6729 30.9896C19.6729 30.3917 19.1771 29.8958 18.5792 29.8958H18.5646V27.65C20.5625 27.4458 22.3854 26.6437 23.8729 25.4479L25.4625 27.0375C25.0396 27.4604 25.0542 28.1458 25.4771 28.5687C25.9 28.9917 26.6 28.9917 27.0229 28.5687L28.5688 27.0229C28.9917 26.6 28.9917 25.9 28.5688 25.4771C28.3629 25.2737 28.0852 25.1596 27.7959 25.1596C27.5065 25.1596 27.2288 25.2737 27.0229 25.4771L27.0084 25.4917L25.4188 23.9021C26.652 22.3766 27.4214 20.5291 27.6354 18.5792H29.8813C29.8813 19.1771 30.3771 19.6729 30.975 19.6729C31.5729 19.6729 32.0688 19.1771 32.0688 18.5792V16.3917C32.0834 15.8083 31.5875 15.3125 30.9896 15.3125ZM20.0521 11.6667C20.8542 11.6667 21.5104 12.3229 21.5104 13.125C21.5104 13.9271 20.8542 14.5833 20.0521 14.5833C19.25 14.5833 18.5938 13.9271 18.5938 13.125C18.5938 12.3229 19.25 11.6667 20.0521 11.6667ZM17.5 18.9583C16.6979 18.9583 16.0417 18.3021 16.0417 17.5C16.0417 16.6979 16.6979 16.0417 17.5 16.0417C18.3021 16.0417 18.9584 16.6979 18.9584 17.5C18.9584 18.3021 18.3021 18.9583 17.5 18.9583ZM14.9479 11.6667C15.75 11.6667 16.4063 12.3229 16.4063 13.125C16.4063 13.9271 15.75 14.5833 14.9479 14.5833C14.1459 14.5833 13.4896 13.9271 13.4896 13.125C13.4896 12.3229 14.1459 11.6667 14.9479 11.6667ZM12.3959 18.9583C11.5938 18.9583 10.9375 18.3021 10.9375 17.5C10.9375 16.6979 11.5938 16.0417 12.3959 16.0417C13.1979 16.0417 13.8542 16.6979 13.8542 17.5C13.8542 18.3021 13.1979 18.9583 12.3959 18.9583ZM14.9479 23.3333C14.1459 23.3333 13.4896 22.6771 13.4896 21.875C13.4896 21.0729 14.1459 20.4167 14.9479 20.4167C15.75 20.4167 16.4063 21.0729 16.4063 21.875C16.4063 22.6771 15.75 23.3333 14.9479 23.3333ZM20.0521 23.3333C19.25 23.3333 18.5938 22.6771 18.5938 21.875C18.5938 21.0729 19.25 20.4167 20.0521 20.4167C20.8542 20.4167 21.5104 21.0729 21.5104 21.875C21.5104 22.6771 20.8542 23.3333 20.0521 23.3333ZM21.1459 17.5C21.1459 16.6979 21.8021 16.0417 22.6042 16.0417C23.4063 16.0417 24.0625 16.6979 24.0625 17.5C24.0625 18.3021 23.4063 18.9583 22.6042 18.9583C21.8021 18.9583 21.1459 18.3021 21.1459 17.5Z" fill="#DD4343"/>
</svg>
