<svg width="35" height="35" viewBox="0 0 35 35" fill="none" xmlns="http://www.w3.org/2000/svg">
<path d="M4.375 8.75H30.625V26.25H4.375V8.75ZM17.5 13.125C18.6603 13.125 19.7731 13.5859 20.5936 14.4064C21.4141 15.2269 21.875 16.3397 21.875 17.5C21.875 18.6603 21.4141 19.7731 20.5936 20.5936C19.7731 21.4141 18.6603 21.875 17.5 21.875C16.3397 21.875 15.2269 21.4141 14.4064 20.5936C13.5859 19.7731 13.125 18.6603 13.125 17.5C13.125 16.3397 13.5859 15.2269 14.4064 14.4064C15.2269 13.5859 16.3397 13.125 17.5 13.125ZM10.2083 11.6667C10.2083 12.4402 9.90104 13.1821 9.35406 13.7291C8.80708 14.276 8.06521 14.5833 7.29167 14.5833V20.4167C8.06521 20.4167 8.80708 20.724 9.35406 21.2709C9.90104 21.8179 10.2083 22.5598 10.2083 23.3333H24.7917C24.7917 22.5598 25.099 21.8179 25.6459 21.2709C26.1929 20.724 26.9348 20.4167 27.7083 20.4167V14.5833C26.9348 14.5833 26.1929 14.276 25.6459 13.7291C25.099 13.1821 24.7917 12.4402 24.7917 11.6667H10.2083Z" fill="#DD4343"/>
</svg>
