<svg width="35" height="35" viewBox="0 0 35 35" fill="none" xmlns="http://www.w3.org/2000/svg">
<path d="M16.7278 4.69438C16.8294 4.59252 16.9501 4.51171 17.083 4.45657C17.2159 4.40143 17.3583 4.37305 17.5022 4.37305C17.6461 4.37305 17.7885 4.40143 17.9214 4.45657C18.0543 4.51171 18.175 4.59252 18.2766 4.69438C20.9891 7.41563 23.9947 8.75 27.3438 8.75C27.6338 8.75 27.912 8.86524 28.1171 9.07035C28.3223 9.27547 28.4375 9.55367 28.4375 9.84375V12.25C27.7383 11.8923 27.0056 11.6043 26.25 11.3903V10.8959C23.0125 10.6509 20.0922 9.30781 17.5 6.97594C14.9056 9.30781 11.9875 10.6509 8.75 10.8959V16.4084C8.75 19.5388 9.53969 22.0084 10.9747 23.9334C11.0906 25.3772 11.4603 26.7509 12.04 28.0066C8.40875 25.3531 6.5625 21.4594 6.5625 16.4106V9.84375C6.5625 9.55367 6.67773 9.27547 6.88285 9.07035C7.08797 8.86524 7.36617 8.75 7.65625 8.75C11.0031 8.75 14.0087 7.41344 16.7278 4.69438ZM32.8125 22.9688C32.8125 24.2615 32.5579 25.5415 32.0632 26.7358C31.5685 27.9301 30.8434 29.0153 29.9293 29.9293C29.0153 30.8434 27.9301 31.5685 26.7358 32.0632C25.5415 32.5579 24.2614 32.8125 22.9688 32.8125C21.6761 32.8125 20.396 32.5579 19.2017 32.0632C18.0074 31.5685 16.9222 30.8434 16.0082 29.9293C15.0941 29.0153 14.369 27.9301 13.8743 26.7358C13.3796 25.5415 13.125 24.2615 13.125 22.9688C13.125 20.358 14.1621 17.8542 16.0082 16.0082C17.8542 14.1621 20.358 13.125 22.9688 13.125C25.5795 13.125 28.0833 14.1621 29.9293 16.0082C31.7754 17.8542 32.8125 20.358 32.8125 22.9688ZM28.1181 18.9131C28.0165 18.8113 27.8958 18.7305 27.7629 18.6753C27.6301 18.6202 27.4876 18.5918 27.3438 18.5918C27.1999 18.5918 27.0574 18.6202 26.9246 18.6753C26.7917 18.7305 26.671 18.8113 26.5694 18.9131L20.7812 24.7034L19.3681 23.2881C19.2664 23.1864 19.1457 23.1058 19.0128 23.0507C18.88 22.9957 18.7376 22.9674 18.5938 22.9674C18.4499 22.9674 18.3075 22.9957 18.1747 23.0507C18.0418 23.1058 17.9211 23.1864 17.8194 23.2881C17.7177 23.3898 17.637 23.5105 17.582 23.6434C17.5269 23.7763 17.4986 23.9187 17.4986 24.0625C17.4986 24.2063 17.5269 24.3487 17.582 24.4816C17.637 24.6145 17.7177 24.7352 17.8194 24.8369L20.0069 27.0244C20.1085 27.1262 20.2292 27.207 20.3621 27.2622C20.4949 27.3173 20.6374 27.3457 20.7812 27.3457C20.9251 27.3457 21.0676 27.3173 21.2004 27.2622C21.3333 27.207 21.454 27.1262 21.5556 27.0244L28.1181 20.4619C28.22 20.3603 28.3008 20.2396 28.3559 20.1067C28.4111 19.9738 28.4395 19.8314 28.4395 19.6875C28.4395 19.5436 28.4111 19.4012 28.3559 19.2683C28.3008 19.1354 28.22 19.0147 28.1181 18.9131Z" fill="#DD4343"/>
</svg>
