<svg width="61" height="70" viewBox="0 0 61 70" fill="none" xmlns="http://www.w3.org/2000/svg">
<g clip-path="url(#clip0)">
<path d="M18.479 2.27055V17.1235H2.58335C2.58335 17.1235 -3.25418 27.6904 2.58335 39.3394H18.479V54.1923C18.479 54.1923 29.7761 59.6667 42.5851 54.1923V39.4879H58.4808C58.4808 39.4879 64.1083 29.4939 58.4808 17.0599H42.4801V2.27055C42.5011 2.27055 31.288 -2.84313 18.479 2.27055Z" fill="#E12429"/>
<path d="M30.7624 25.4198C33.6501 25.4198 35.991 23.2823 35.991 20.6456C35.991 18.0089 33.6501 15.8715 30.7624 15.8715C27.8748 15.8715 25.5339 18.0089 25.5339 20.6456C25.5339 23.2823 27.8748 25.4198 30.7624 25.4198Z" fill="white"/>
<path d="M20.2633 23.6587C20.0744 23.5738 19.8854 23.4889 19.6964 23.4041C19.0454 23.1707 18.3105 23.0009 17.6176 23.0858C16.5676 23.2343 16.1477 23.8921 15.7277 24.7196C15.7277 24.7196 12.473 33.0161 25.1769 40.8457C25.1769 40.8457 32.0854 45.4714 33.6393 45.8957C33.6393 45.8957 25.051 39.1695 24.358 34.6923C24.358 34.6923 27.4658 39.1482 29.7336 41.0579C30.2165 41.4611 30.9725 41.3974 31.3294 40.9094C33.0303 38.639 38.0489 32.3371 43.6974 29.1755C43.6974 29.1755 49.7029 24.9106 56.0864 27.7327C55.9814 27.6902 55.8344 27.4356 55.7504 27.3507C55.3725 26.9264 54.9105 26.5656 54.4485 26.2474C53.5876 25.6532 52.6217 25.1652 51.5928 24.8682C48.506 23.977 44.6843 24.0831 41.5556 25.2289C39.8547 25.8442 38.1749 26.4808 36.453 26.99C35.1301 27.3719 33.8072 27.7327 32.4633 27.9448C31.1615 28.157 29.8176 28.3268 28.5157 28.0934C27.3398 27.8812 26.2059 27.4568 25.1979 26.8627C23.8331 26.0352 22.5732 25.0591 21.2083 24.2528C20.8933 24.0194 20.5783 23.8284 20.2633 23.6587Z" fill="white"/>
<path d="M6.82443 61.4915H8.04233C8.12632 61.4915 8.21032 61.5551 8.21032 61.64V69.7667C8.21032 69.8516 8.14732 69.9152 8.04233 69.9152H6.82443C6.74044 69.9152 6.65645 69.8516 6.65645 69.7667V66.3505C6.65645 66.3081 6.63545 66.2868 6.59345 66.2868H4.05266C4.01066 66.2868 3.98966 66.3081 3.98966 66.3505V69.7667C3.98966 69.8516 3.92667 69.9152 3.82168 69.9152H2.60378C2.51978 69.9152 2.43579 69.8516 2.43579 69.7667V61.64C2.43579 61.5551 2.49879 61.4915 2.60378 61.4915H3.82168C3.90567 61.4915 3.98966 61.5551 3.98966 61.64V65.0137C3.98966 65.0562 4.01066 65.0774 4.05266 65.0774H6.59345C6.63545 65.0774 6.65645 65.0562 6.65645 65.0137V61.64C6.65645 61.5551 6.71944 61.4915 6.82443 61.4915Z" fill="#E12429"/>
<path d="M13.5019 68.1329C13.5439 68.048 13.6069 68.0055 13.7119 68.0268L14.6988 68.2602C14.7828 68.2814 14.8458 68.345 14.8248 68.4299C14.5098 69.3635 13.6279 69.9789 12.326 69.9789C10.9611 69.9789 10.0372 69.2999 9.80617 68.2602C9.68018 67.8146 9.61719 67.3265 9.61719 66.7536C9.61719 66.3293 9.63819 65.9473 9.68018 65.5866C9.84817 64.4196 10.7931 63.6345 12.284 63.6345C13.9428 63.6345 14.7828 64.4833 14.9088 65.8413C14.9508 66.2444 14.9717 66.7749 14.9717 67.1568C14.9717 67.2629 14.9088 67.3053 14.8038 67.3053H11.2131C11.1711 67.3053 11.1501 67.3266 11.1501 67.369C11.1501 67.5812 11.1711 67.7509 11.1921 67.8995C11.2761 68.4299 11.738 68.7906 12.389 68.7906C12.9559 68.7906 13.3129 68.5148 13.5019 68.1329ZM11.1921 65.7139C11.1711 65.8837 11.1291 66.0747 11.1291 66.2656C11.1291 66.3081 11.1501 66.3293 11.1921 66.3293H13.3129C13.3549 66.3293 13.3759 66.3081 13.3759 66.2656C13.3549 66.0959 13.3549 65.9049 13.3129 65.7564C13.2289 65.2259 12.8509 64.8864 12.221 64.8864C11.675 64.8652 11.297 65.2047 11.1921 65.7139Z" fill="#E12429"/>
<path d="M21.2293 65.6927V69.7667C21.2293 69.8515 21.1663 69.9152 21.0613 69.9152H19.8434C19.7594 69.9152 19.6754 69.8515 19.6754 69.7667V69.4696C19.6754 69.4272 19.6334 69.4059 19.5914 69.4484C19.2134 69.8303 18.6255 70.0213 17.9535 70.0213C16.9456 70.0213 15.8537 69.6181 15.8537 68.2177C15.8537 66.8173 16.9246 66.2232 18.5415 66.2232H19.5914C19.6334 66.2232 19.6544 66.2019 19.6544 66.1595V65.8624C19.6544 65.2683 19.2764 64.9076 18.6045 64.9076C18.0795 64.9076 17.7435 65.141 17.6596 65.5017C17.6386 65.6078 17.5756 65.629 17.4916 65.629L16.1897 65.5654C16.0847 65.5442 16.0217 65.5017 16.0427 65.4381C16.1687 64.4196 17.1976 63.6982 18.6255 63.6982C20.1793 63.6769 21.2293 64.5045 21.2293 65.6927ZM19.6754 67.8782V67.2629C19.6754 67.2204 19.6544 67.1992 19.6124 67.1992H18.7095C17.9535 67.1992 17.4496 67.4963 17.4496 68.0904C17.4496 68.6209 17.8695 68.8755 18.3945 68.8755C19.0454 68.8755 19.6754 68.4935 19.6754 67.8782Z" fill="#E12429"/>
<path d="M22.5311 69.7667V61.64C22.5311 61.5551 22.5941 61.4915 22.6991 61.4915H23.917C24.001 61.4915 24.085 61.5551 24.085 61.64V69.7667C24.085 69.8516 24.022 69.9152 23.917 69.9152H22.6991C22.5941 69.894 22.5311 69.8516 22.5311 69.7667Z" fill="#E12429"/>
<path d="M28.5577 64.8227H27.4868C27.4448 64.8227 27.4238 64.8439 27.4238 64.8864V67.8782C27.4238 68.4723 27.6967 68.6845 28.2217 68.6845H28.4527C28.5367 68.6845 28.6207 68.7481 28.6207 68.833V69.7242C28.6207 69.8091 28.5577 69.8727 28.4527 69.8727H27.8857C26.6888 69.8727 25.9119 69.6181 25.9119 68.3874V64.8651C25.9119 64.8227 25.8909 64.8015 25.8489 64.8015H25.2399C25.156 64.8015 25.072 64.7378 25.072 64.653V63.8891C25.072 63.8042 25.135 63.7406 25.2399 63.7406H25.8489C25.8909 63.7406 25.9119 63.7193 25.9119 63.6769V62.2977C25.9119 62.2128 25.9749 62.1492 26.0799 62.1492H27.2558C27.3398 62.1492 27.4238 62.2128 27.4238 62.2977V63.6769C27.4238 63.7193 27.4448 63.7406 27.4868 63.7406H28.5577C28.6417 63.7406 28.7257 63.8042 28.7257 63.8891V64.653C28.7257 64.759 28.6417 64.8227 28.5577 64.8227Z" fill="#E12429"/>
<path d="M35.0251 65.7564V69.7667C35.0251 69.8516 34.9621 69.9152 34.8572 69.9152H33.6393C33.5553 69.9152 33.4713 69.8516 33.4713 69.7667V65.9474C33.4713 65.2896 33.0933 64.8864 32.4423 64.8864C31.8754 64.8864 31.4764 65.2259 31.3924 65.7776V69.7667C31.3924 69.8516 31.3294 69.9152 31.2244 69.9152H30.0275C29.9436 69.9152 29.8596 69.8516 29.8596 69.7667V61.64C29.8596 61.5551 29.9226 61.4915 30.0275 61.4915H31.2454C31.3294 61.4915 31.4134 61.5551 31.4134 61.64V64.2287C31.4134 64.2711 31.4554 64.2923 31.4974 64.2499C31.8754 63.8467 32.4004 63.677 32.9673 63.677C34.2482 63.677 35.0251 64.4408 35.0251 65.7564Z" fill="#E12429"/>
<path d="M44.9993 63.974C44.9993 65.4381 43.9494 66.4142 42.3955 66.4142H40.7576C40.7156 66.4142 40.6946 66.4354 40.6946 66.4778V69.7667C40.6946 69.8516 40.6316 69.9152 40.5266 69.9152H39.3087C39.2247 69.9152 39.1407 69.8516 39.1407 69.7667V61.64C39.1407 61.5551 39.2037 61.4915 39.3087 61.4915H42.3955C43.9494 61.4915 44.9993 62.4887 44.9993 63.974ZM43.4664 64.0165C43.4664 63.2102 42.9414 62.7009 42.1645 62.7009H40.7576C40.7156 62.7009 40.6946 62.7221 40.6946 62.7646V65.2684C40.6946 65.3108 40.7156 65.332 40.7576 65.332H42.1645C42.9414 65.3108 43.4664 64.8016 43.4664 64.0165Z" fill="#E12429"/>
<path d="M46.0702 69.7667V61.64C46.0702 61.5551 46.1332 61.4915 46.2382 61.4915H47.4561C47.5401 61.4915 47.6241 61.5551 47.6241 61.64V69.7667C47.6241 69.8516 47.5611 69.9152 47.4561 69.9152H46.2382C46.1332 69.894 46.0702 69.8516 46.0702 69.7667Z" fill="#E12429"/>
<path d="M52.7477 63.7618H53.9656C54.0496 63.7618 54.1336 63.8255 54.1336 63.9104V69.7667C54.1336 69.8516 54.0706 69.9152 53.9656 69.9152H52.7477C52.6637 69.9152 52.5797 69.8516 52.5797 69.7667V69.4484C52.5797 69.406 52.5377 69.3848 52.4957 69.4272C52.1808 69.8304 51.6768 70.0001 51.0678 70.0001C49.9339 70.0001 48.968 69.406 48.968 68.0904V63.9316C48.968 63.8467 49.031 63.7831 49.136 63.7831H50.3539C50.4379 63.7831 50.5219 63.8467 50.5219 63.9316V67.7509C50.5219 68.4299 50.8789 68.8119 51.5298 68.8119C52.1808 68.8119 52.5797 68.3875 52.5797 67.7297V63.9316C52.5797 63.8255 52.6427 63.7618 52.7477 63.7618Z" fill="#E12429"/>
<path d="M55.3304 68.2814V68.1753C55.3304 68.0905 55.3934 68.0268 55.4984 68.0268H56.6533C56.7373 68.0268 56.8213 68.0692 56.8213 68.1117V68.2178C56.8213 68.5997 57.2623 68.918 57.8922 68.918C58.5012 68.918 58.8582 68.6209 58.8582 68.239C58.8582 67.7297 58.1442 67.6024 57.3883 67.3478C56.4853 67.0932 55.3934 66.6688 55.3934 65.4806C55.3934 64.3348 56.3804 63.677 57.8292 63.677C59.3411 63.677 60.307 64.4197 60.307 65.5018V65.523C60.307 65.6079 60.244 65.6715 60.139 65.6715H59.0051C58.9211 65.6715 58.8372 65.6291 58.8372 65.5655V65.4594C58.8372 65.0774 58.4382 64.7591 57.8082 64.7591C57.2203 64.7591 56.8423 65.0562 56.8423 65.4169C56.8423 65.9049 57.5143 66.0747 58.2702 66.2869C59.2151 66.5839 60.37 66.9659 60.37 68.1541C60.37 69.2575 59.3621 69.9365 57.8502 69.9365C56.3174 69.9789 55.3304 69.2787 55.3304 68.2814Z" fill="#E12429"/>
<path d="M39.2248 43.201H36.222V45.9807H34.5632V43.201H31.5604V41.6733H34.5632V38.8937H36.222V41.6733H39.2248V43.201Z" fill="white"/>
</g>
<defs>
<clipPath id="clip0">
<rect width="61" height="70" fill="white"/>
</clipPath>
</defs>
</svg>
