<svg width="28" height="31" viewBox="0 0 28 31" fill="none" xmlns="http://www.w3.org/2000/svg">
<path d="M8.83335 14.3333C7.28626 14.3333 5.80253 13.7188 4.70856 12.6248C3.6146 11.5308 3.00002 10.0471 3.00002 8.50001V3.83334C3.00002 3.52392 3.12294 3.22718 3.34173 3.00839C3.56052 2.78959 3.85727 2.66668 4.16669 2.66668H5.33335C5.64277 2.66668 5.93952 2.54376 6.15831 2.32497C6.3771 2.10618 6.50002 1.80943 6.50002 1.50001C6.50002 1.19059 6.3771 0.893845 6.15831 0.675052C5.93952 0.45626 5.64277 0.333344 5.33335 0.333344H4.16669C3.23843 0.333344 2.34819 0.702093 1.69181 1.35847C1.03544 2.01485 0.666687 2.90509 0.666687 3.83334V8.50001C0.668187 9.81804 0.989588 11.116 1.60329 12.2824C2.21699 13.4489 3.10464 14.4489 4.19002 15.1967C5.23282 16.116 6.07851 17.2372 6.67605 18.4924C7.27359 19.7476 7.61058 21.1109 7.66669 22.5C7.66669 24.6659 8.5271 26.7432 10.0586 28.2747C11.5902 29.8063 13.6674 30.6667 15.8334 30.6667C17.9993 30.6667 20.0765 29.8063 21.6081 28.2747C23.1396 26.7432 24 24.6659 24 22.5V21.17C25.0998 20.8861 26.0582 20.2107 26.6957 19.2707C27.3332 18.3306 27.6059 17.1903 27.4628 16.0635C27.3197 14.9367 26.7705 13.9008 25.9183 13.15C25.066 12.3991 23.9692 11.9849 22.8334 11.9849C21.6975 11.9849 20.6007 12.3991 19.7484 13.15C18.8962 13.9008 18.347 14.9367 18.2039 16.0635C18.0608 17.1903 18.3335 18.3306 18.971 19.2707C19.6085 20.2107 20.5669 20.8861 21.6667 21.17V22.5C21.6667 24.0471 21.0521 25.5308 19.9581 26.6248C18.8642 27.7188 17.3804 28.3333 15.8334 28.3333C14.2863 28.3333 12.8025 27.7188 11.7086 26.6248C10.6146 25.5308 10 24.0471 10 22.5C10.0591 21.1092 10.3997 19.7449 11.0013 18.4895C11.6029 17.2342 12.453 16.114 13.5 15.1967C14.5811 14.4463 15.4642 13.4451 16.0738 12.2789C16.6833 11.1126 17.0011 9.81597 17 8.50001V3.83334C17 2.90509 16.6313 2.01485 15.9749 1.35847C15.3185 0.702093 14.4283 0.333344 13.5 0.333344H12.3334C12.0239 0.333344 11.7272 0.45626 11.5084 0.675052C11.2896 0.893845 11.1667 1.19059 11.1667 1.50001C11.1667 1.80943 11.2896 2.10618 11.5084 2.32497C11.7272 2.54376 12.0239 2.66668 12.3334 2.66668H13.5C13.8094 2.66668 14.1062 2.78959 14.325 3.00839C14.5438 3.22718 14.6667 3.52392 14.6667 3.83334V8.50001C14.6667 9.26606 14.5158 10.0246 14.2227 10.7323C13.9295 11.4401 13.4998 12.0831 12.9581 12.6248C12.4165 13.1665 11.7734 13.5962 11.0657 13.8893C10.3579 14.1825 9.5994 14.3333 8.83335 14.3333ZM22.8334 19C22.2145 19 21.621 18.7542 21.1834 18.3166C20.7459 17.879 20.5 17.2855 20.5 16.6667C20.5 16.0478 20.7459 15.4543 21.1834 15.0168C21.621 14.5792 22.2145 14.3333 22.8334 14.3333C23.4522 14.3333 24.0457 14.5792 24.4833 15.0168C24.9209 15.4543 25.1667 16.0478 25.1667 16.6667C25.1667 17.2855 24.9209 17.879 24.4833 18.3166C24.0457 18.7542 23.4522 19 22.8334 19Z" fill="#DD4343"/>
</svg>
